<svg width="48" height="20" viewBox="0 0 48 20" fill="none" xmlns="http://www.w3.org/2000/svg">
<rect x="0.5" y="0.5" width="47" height="19" rx="3.5" fill="#56B6FF"/>
<rect x="0.5" y="0.5" width="47" height="19" rx="3.5" stroke="black"/>
<path d="M14.4233 9.16406H13.5028C13.5057 9.0419 13.4901 8.93395 13.456 8.8402C13.4219 8.74503 13.3707 8.66406 13.3026 8.5973C13.2358 8.53054 13.1541 8.48011 13.0575 8.44602C12.9609 8.41051 12.8523 8.39276 12.7315 8.39276C12.4986 8.39276 12.2848 8.45099 12.0902 8.56747C11.8956 8.68395 11.7315 8.85298 11.598 9.07457C11.4645 9.29474 11.3722 9.56108 11.321 9.87358C11.2713 10.1747 11.2741 10.4268 11.3295 10.63C11.3849 10.8331 11.483 10.9865 11.6236 11.0902C11.7656 11.1925 11.9425 11.2436 12.1541 11.2436C12.2848 11.2436 12.4091 11.2273 12.527 11.1946C12.6449 11.1605 12.7521 11.1122 12.8487 11.0497C12.9467 10.9858 13.032 10.9084 13.1044 10.8175C13.1783 10.7266 13.2358 10.6236 13.277 10.5085H14.2038C14.1456 10.7088 14.0547 10.902 13.9311 11.0881C13.8089 11.2741 13.6577 11.4403 13.4773 11.5866C13.2969 11.7315 13.0916 11.8466 12.8615 11.9318C12.6314 12.017 12.3793 12.0597 12.1051 12.0597C11.7088 12.0597 11.3686 11.9688 11.0845 11.7869C10.8018 11.6051 10.598 11.343 10.473 11.0007C10.348 10.6584 10.3246 10.2457 10.4027 9.76278C10.4808 9.29545 10.6335 8.89915 10.8608 8.57386C11.0895 8.24716 11.3672 7.99929 11.6939 7.83026C12.022 7.66122 12.3729 7.5767 12.7464 7.5767C13.0064 7.5767 13.2415 7.61222 13.4517 7.68324C13.6619 7.75426 13.8409 7.85795 13.9886 7.99432C14.1378 8.12926 14.25 8.29474 14.3253 8.49077C14.4006 8.68679 14.4332 8.91122 14.4233 9.16406ZM16.0842 12.0639C15.7504 12.0639 15.4741 11.9929 15.2553 11.8509C15.0366 11.7074 14.8825 11.5085 14.793 11.2543C14.7049 10.9986 14.6886 10.701 14.744 10.3615C14.7979 10.0263 14.9102 9.73295 15.0806 9.48153C15.2511 9.23011 15.4677 9.0348 15.7305 8.8956C15.9933 8.75497 16.2894 8.68466 16.619 8.68466C16.9513 8.68466 17.2269 8.75639 17.4457 8.89986C17.6644 9.0419 17.8185 9.24077 17.908 9.49645C17.9975 9.75213 18.0146 10.0497 17.9592 10.3892C17.9038 10.723 17.7901 11.0156 17.6183 11.267C17.4464 11.5185 17.2298 11.7145 16.9684 11.8551C16.707 11.9943 16.4123 12.0639 16.0842 12.0639ZM16.1737 11.3608C16.3271 11.3608 16.4627 11.3175 16.5806 11.2308C16.6999 11.1428 16.7987 11.0234 16.8768 10.8729C16.9563 10.7209 17.0117 10.549 17.043 10.3572C17.0742 10.1683 17.0763 10.0007 17.0494 9.8544C17.0224 9.70668 16.9656 9.5902 16.8789 9.50497C16.7937 9.41974 16.6765 9.37713 16.5273 9.37713C16.3739 9.37713 16.2376 9.42116 16.1183 9.50923C15.9989 9.59588 15.9002 9.7152 15.8221 9.86719C15.744 10.0192 15.6893 10.1918 15.658 10.3849C15.6282 10.5724 15.6261 10.7401 15.6516 10.8878C15.6772 11.0341 15.7333 11.1499 15.82 11.2351C15.9066 11.3189 16.0245 11.3608 16.1737 11.3608ZM20.6119 10.6065L20.9251 8.72727H21.8327L21.2873 12H20.4158L20.5138 11.4055H20.4798C20.3789 11.5973 20.2319 11.7514 20.0387 11.8679C19.8455 11.9844 19.6261 12.0426 19.3803 12.0426C19.1616 12.0426 18.9769 11.9929 18.8263 11.8935C18.6772 11.794 18.5714 11.6527 18.5089 11.4695C18.4464 11.2862 18.4357 11.0668 18.4769 10.8111L18.8263 8.72727H19.734L19.4144 10.6491C19.3846 10.8423 19.4116 10.995 19.4954 11.1072C19.5792 11.2195 19.707 11.2756 19.8789 11.2756C19.9883 11.2756 20.0941 11.2507 20.1964 11.201C20.3001 11.1499 20.3896 11.0746 20.4648 10.9751C20.5401 10.8757 20.5891 10.7528 20.6119 10.6065ZM22.0133 12L22.5588 8.72727H23.4387L23.3429 9.2983H23.377C23.4707 9.09517 23.5964 8.94176 23.7541 8.83807C23.9132 8.73295 24.0843 8.6804 24.2676 8.6804C24.313 8.6804 24.3606 8.68324 24.4103 8.68892C24.4615 8.69318 24.5069 8.70028 24.5467 8.71023L24.4103 9.51776C24.3706 9.50355 24.3137 9.49219 24.2399 9.48366C24.1674 9.47372 24.0985 9.46875 24.0332 9.46875C23.9011 9.46875 23.7782 9.49787 23.6646 9.55611C23.551 9.61293 23.4551 9.69247 23.377 9.79474C23.3002 9.89702 23.2498 10.0149 23.2257 10.1484L22.921 12H22.0133ZM27.5771 9.66051L26.7525 9.71165C26.7482 9.6392 26.7283 9.57457 26.6928 9.51776C26.6587 9.45952 26.6083 9.41335 26.5415 9.37926C26.4762 9.34517 26.3938 9.32812 26.2944 9.32812C26.1452 9.32812 26.0124 9.36222 25.896 9.4304C25.7795 9.49858 25.7134 9.58594 25.6978 9.69247C25.685 9.76065 25.7028 9.81818 25.7511 9.86506C25.7994 9.91193 25.8967 9.9517 26.043 9.98438L26.6183 10.1037C26.9251 10.169 27.1467 10.2777 27.283 10.4297C27.4208 10.5817 27.4698 10.7805 27.43 11.0263C27.3945 11.2351 27.3029 11.4176 27.1552 11.5739C27.0075 11.7287 26.82 11.8494 26.5927 11.9361C26.3654 12.0213 26.1133 12.0639 25.8363 12.0639C25.3917 12.0639 25.0536 11.973 24.8221 11.7912C24.5906 11.6094 24.479 11.3629 24.4876 11.0518L25.3739 11.005C25.381 11.1385 25.4279 11.2393 25.5146 11.3075C25.6012 11.3743 25.7198 11.4084 25.8704 11.4098C26.0394 11.4126 26.1829 11.3778 26.3008 11.3054C26.4201 11.2315 26.4876 11.142 26.5032 11.0369C26.5146 10.9631 26.4933 10.9034 26.4393 10.858C26.3867 10.8125 26.2901 10.7749 26.1495 10.745L25.604 10.6321C25.2944 10.5682 25.0721 10.4538 24.9371 10.2891C24.8022 10.1243 24.756 9.91477 24.7987 9.66051C24.8327 9.45739 24.9173 9.28338 25.0522 9.13849C25.1886 8.99219 25.364 8.87997 25.5785 8.80185C25.7944 8.72372 26.038 8.68466 26.3093 8.68466C26.734 8.68466 27.0536 8.77202 27.2681 8.94673C27.484 9.12145 27.587 9.35937 27.5771 9.66051ZM29.3205 12.0639C28.9853 12.0639 28.7076 11.9957 28.4874 11.8594C28.2672 11.7216 28.1124 11.527 28.0229 11.2756C27.9348 11.0227 27.9199 10.7237 27.9782 10.3786C28.035 10.0419 28.1493 9.74645 28.3212 9.49219C28.4945 9.23793 28.7118 9.03977 28.9732 8.89773C29.2346 8.75568 29.5257 8.68466 29.8468 8.68466C30.0627 8.68466 30.258 8.71946 30.4327 8.78906C30.6088 8.85724 30.7551 8.96094 30.8716 9.10014C30.9881 9.23793 31.0676 9.41051 31.1103 9.6179C31.1543 9.82528 31.1536 10.0682 31.1081 10.3466L31.0676 10.5959H28.3063L28.3936 10.0334H30.3027C30.324 9.9027 30.3155 9.78693 30.2772 9.68608C30.2388 9.58523 30.1749 9.50639 30.0854 9.44957C29.9959 9.39134 29.8858 9.36222 29.7551 9.36222C29.6216 9.36222 29.4966 9.39489 29.3801 9.46023C29.2637 9.52557 29.1657 9.61151 29.0861 9.71804C29.008 9.82315 28.9576 9.9375 28.9348 10.0611L28.8347 10.6193C28.8063 10.7912 28.812 10.9339 28.8517 11.0476C28.8929 11.1612 28.964 11.2464 29.0648 11.3033C29.1657 11.3587 29.2935 11.3864 29.4483 11.3864C29.5492 11.3864 29.6436 11.3722 29.7317 11.3438C29.8212 11.3153 29.9007 11.2734 29.9703 11.218C30.04 11.1612 30.0968 11.0909 30.1408 11.0071L30.9696 11.0625C30.8929 11.2642 30.7765 11.4403 30.6202 11.5909C30.464 11.7401 30.2757 11.8565 30.0556 11.9403C29.8368 12.0227 29.5918 12.0639 29.3205 12.0639ZM31.4293 12L31.9748 8.72727H32.8548L32.7589 9.2983H32.793C32.8867 9.09517 33.0124 8.94176 33.1701 8.83807C33.3292 8.73295 33.5004 8.6804 33.6836 8.6804C33.729 8.6804 33.7766 8.68324 33.8263 8.68892C33.8775 8.69318 33.9229 8.70028 33.9627 8.71023L33.8263 9.51776C33.7866 9.50355 33.7298 9.49219 33.6559 9.48366C33.5835 9.47372 33.5146 9.46875 33.4492 9.46875C33.3171 9.46875 33.1942 9.49787 33.0806 9.55611C32.967 9.61293 32.8711 9.69247 32.793 9.79474C32.7163 9.89702 32.6658 10.0149 32.6417 10.1484L32.337 12H31.4293ZM34.7154 12.0618C34.508 12.0618 34.3283 12.0256 34.1763 11.9531C34.0257 11.8793 33.915 11.7699 33.8439 11.625C33.7729 11.4801 33.7551 11.3004 33.7907 11.0859C33.8219 10.9041 33.8809 10.7521 33.9675 10.63C34.0556 10.5064 34.1628 10.407 34.2892 10.3317C34.4157 10.2564 34.5556 10.1989 34.709 10.1591C34.8638 10.1193 35.0236 10.0923 35.1884 10.0781C35.3787 10.0582 35.5336 10.0391 35.6529 10.0206C35.7736 10.0021 35.8638 9.97585 35.9235 9.94176C35.9831 9.90625 36.0194 9.85369 36.0321 9.78409V9.77131C36.0534 9.63778 36.0286 9.53409 35.9576 9.46023C35.888 9.38494 35.7765 9.3473 35.623 9.3473C35.4611 9.3473 35.3233 9.38281 35.2097 9.45384C35.0975 9.52486 35.0172 9.61506 34.9689 9.72443L34.1422 9.65625C34.2161 9.45739 34.3276 9.28551 34.4767 9.14062C34.6273 8.99432 34.8084 8.8821 35.0201 8.80398C35.2317 8.72443 35.4689 8.68466 35.7317 8.68466C35.9135 8.68466 36.0833 8.70597 36.2409 8.74858C36.4 8.79119 36.5371 8.85724 36.6522 8.94673C36.7686 9.03622 36.8525 9.15128 36.9036 9.2919C36.9561 9.43111 36.9668 9.59801 36.9355 9.79261L36.5669 12H35.7061L35.7828 11.5462H35.7573C35.6877 11.6484 35.6025 11.7386 35.5016 11.8168C35.4007 11.8935 35.285 11.9538 35.1543 11.9979C35.0236 12.0405 34.8773 12.0618 34.7154 12.0618ZM35.0797 11.4354C35.2118 11.4354 35.3333 11.4091 35.4441 11.3565C35.5563 11.3026 35.6486 11.2301 35.7211 11.1392C35.7949 11.0483 35.8418 10.9453 35.8617 10.8303L35.9171 10.483C35.8887 10.5014 35.8475 10.5178 35.7935 10.532C35.7409 10.5462 35.6834 10.5597 35.6209 10.5724C35.5598 10.5838 35.498 10.5945 35.4355 10.6044C35.373 10.6129 35.3169 10.6214 35.2672 10.63C35.1578 10.6456 35.0598 10.6705 34.9732 10.7045C34.8865 10.7386 34.8162 10.7848 34.7623 10.843C34.7083 10.8999 34.6749 10.9709 34.6621 11.0561C34.6422 11.1797 34.6713 11.2741 34.7495 11.3395C34.829 11.4034 34.9391 11.4354 35.0797 11.4354Z" fill="black"/>
</svg>
